<mxfile host="app.diagrams.net" modified="2024-02-13T08:59:25.143Z" agent="Mozilla/5.0 (Windows NT 10.0; Win64; x64) AppleWebKit/537.36 (KHTML, like Gecko) Chrome/120.0.0.0 YaBrowser/24.1.0.0 Safari/537.36" etag="qb5ZvhG1xjB_kOuErBO_" version="23.1.3" type="github">
  <diagram name="Страница — 1" id="49fXi-je-qd-RC42OqCw">
    <mxGraphModel dx="1631" dy="931" grid="1" gridSize="10" guides="1" tooltips="1" connect="1" arrows="1" fold="1" page="1" pageScale="1" pageWidth="827" pageHeight="1169" math="0" shadow="0">
      <root>
        <mxCell id="0" />
        <mxCell id="1" parent="0" />
        <mxCell id="soVYNJIR0e5djV3rPOhE-46" value="" style="endArrow=none;dashed=1;html=1;rounded=0;entryX=0.5;entryY=0.5;entryDx=0;entryDy=0;entryPerimeter=0;" edge="1" parent="1" target="soVYNJIR0e5djV3rPOhE-45">
          <mxGeometry width="50" height="50" relative="1" as="geometry">
            <mxPoint x="135" y="912.7586206896551" as="sourcePoint" />
            <mxPoint x="180" y="180" as="targetPoint" />
          </mxGeometry>
        </mxCell>
        <mxCell id="soVYNJIR0e5djV3rPOhE-42" value="Игра" style="rounded=0;whiteSpace=wrap;html=1;" vertex="1" parent="1">
          <mxGeometry x="250" y="70" width="120" height="60" as="geometry" />
        </mxCell>
        <mxCell id="soVYNJIR0e5djV3rPOhE-50" value="" style="endArrow=none;html=1;rounded=0;fillColor=#d5e8d4;strokeColor=#82b366;strokeWidth=5;" edge="1" parent="1">
          <mxGeometry width="50" height="50" relative="1" as="geometry">
            <mxPoint x="135" y="850" as="sourcePoint" />
            <mxPoint x="134.66" y="150" as="targetPoint" />
          </mxGeometry>
        </mxCell>
        <mxCell id="soVYNJIR0e5djV3rPOhE-43" value="Система" style="rounded=0;whiteSpace=wrap;html=1;" vertex="1" parent="1">
          <mxGeometry x="420" y="70" width="120" height="60" as="geometry" />
        </mxCell>
        <mxCell id="soVYNJIR0e5djV3rPOhE-45" value="Игрок" style="shape=umlActor;verticalLabelPosition=bottom;verticalAlign=top;html=1;outlineConnect=0;" vertex="1" parent="1">
          <mxGeometry x="120" y="70" width="30" height="60" as="geometry" />
        </mxCell>
        <mxCell id="soVYNJIR0e5djV3rPOhE-47" value="" style="endArrow=none;dashed=1;html=1;rounded=0;entryX=0.5;entryY=1;entryDx=0;entryDy=0;" edge="1" parent="1" target="soVYNJIR0e5djV3rPOhE-42">
          <mxGeometry width="50" height="50" relative="1" as="geometry">
            <mxPoint x="310" y="920" as="sourcePoint" />
            <mxPoint x="380" y="180" as="targetPoint" />
          </mxGeometry>
        </mxCell>
        <mxCell id="soVYNJIR0e5djV3rPOhE-48" value="" style="endArrow=none;dashed=1;html=1;rounded=0;entryX=0.5;entryY=1;entryDx=0;entryDy=0;" edge="1" parent="1" target="soVYNJIR0e5djV3rPOhE-43">
          <mxGeometry width="50" height="50" relative="1" as="geometry">
            <mxPoint x="480" y="920" as="sourcePoint" />
            <mxPoint x="510" y="220" as="targetPoint" />
          </mxGeometry>
        </mxCell>
        <mxCell id="soVYNJIR0e5djV3rPOhE-51" value="" style="endArrow=classic;html=1;rounded=0;" edge="1" parent="1">
          <mxGeometry width="50" height="50" relative="1" as="geometry">
            <mxPoint x="140" y="170" as="sourcePoint" />
            <mxPoint x="310" y="170" as="targetPoint" />
          </mxGeometry>
        </mxCell>
        <mxCell id="soVYNJIR0e5djV3rPOhE-54" value="Новая игра" style="edgeLabel;html=1;align=center;verticalAlign=middle;resizable=0;points=[];" vertex="1" connectable="0" parent="soVYNJIR0e5djV3rPOhE-51">
          <mxGeometry x="-0.0929" y="-1" relative="1" as="geometry">
            <mxPoint as="offset" />
          </mxGeometry>
        </mxCell>
        <mxCell id="soVYNJIR0e5djV3rPOhE-52" value="" style="endArrow=none;html=1;rounded=0;fillColor=#d5e8d4;strokeColor=#82b366;strokeWidth=5;" edge="1" parent="1">
          <mxGeometry width="50" height="50" relative="1" as="geometry">
            <mxPoint x="310" y="270" as="sourcePoint" />
            <mxPoint x="309.65999999999997" y="170" as="targetPoint" />
          </mxGeometry>
        </mxCell>
        <mxCell id="soVYNJIR0e5djV3rPOhE-53" value="" style="endArrow=classic;html=1;rounded=0;" edge="1" parent="1">
          <mxGeometry width="50" height="50" relative="1" as="geometry">
            <mxPoint x="310" y="270" as="sourcePoint" />
            <mxPoint x="140" y="270" as="targetPoint" />
          </mxGeometry>
        </mxCell>
        <mxCell id="soVYNJIR0e5djV3rPOhE-55" value="Сцена запущенна" style="edgeLabel;html=1;align=center;verticalAlign=middle;resizable=0;points=[];" vertex="1" connectable="0" parent="soVYNJIR0e5djV3rPOhE-53">
          <mxGeometry x="0.0686" y="3" relative="1" as="geometry">
            <mxPoint as="offset" />
          </mxGeometry>
        </mxCell>
        <mxCell id="soVYNJIR0e5djV3rPOhE-56" value="" style="endArrow=none;html=1;rounded=0;fillColor=#d5e8d4;strokeColor=#82b366;strokeWidth=5;" edge="1" parent="1">
          <mxGeometry width="50" height="50" relative="1" as="geometry">
            <mxPoint x="310" y="430" as="sourcePoint" />
            <mxPoint x="309.65999999999997" y="320" as="targetPoint" />
          </mxGeometry>
        </mxCell>
        <mxCell id="soVYNJIR0e5djV3rPOhE-57" value="" style="endArrow=classic;html=1;rounded=0;" edge="1" parent="1">
          <mxGeometry width="50" height="50" relative="1" as="geometry">
            <mxPoint x="140" y="320" as="sourcePoint" />
            <mxPoint x="310" y="320" as="targetPoint" />
          </mxGeometry>
        </mxCell>
        <mxCell id="soVYNJIR0e5djV3rPOhE-60" value="Выбор предметов" style="edgeLabel;html=1;align=center;verticalAlign=middle;resizable=0;points=[];" vertex="1" connectable="0" parent="soVYNJIR0e5djV3rPOhE-57">
          <mxGeometry x="-0.1984" y="1" relative="1" as="geometry">
            <mxPoint as="offset" />
          </mxGeometry>
        </mxCell>
        <mxCell id="soVYNJIR0e5djV3rPOhE-58" value="" style="endArrow=classic;html=1;rounded=0;" edge="1" parent="1">
          <mxGeometry width="50" height="50" relative="1" as="geometry">
            <mxPoint x="310" y="360" as="sourcePoint" />
            <mxPoint x="480" y="360" as="targetPoint" />
          </mxGeometry>
        </mxCell>
        <mxCell id="soVYNJIR0e5djV3rPOhE-61" value="Запрос к массиву" style="edgeLabel;html=1;align=center;verticalAlign=middle;resizable=0;points=[];" vertex="1" connectable="0" parent="soVYNJIR0e5djV3rPOhE-58">
          <mxGeometry x="-0.1456" y="2" relative="1" as="geometry">
            <mxPoint as="offset" />
          </mxGeometry>
        </mxCell>
        <mxCell id="soVYNJIR0e5djV3rPOhE-59" value="" style="endArrow=none;html=1;rounded=0;fillColor=#d5e8d4;strokeColor=#82b366;strokeWidth=5;" edge="1" parent="1">
          <mxGeometry width="50" height="50" relative="1" as="geometry">
            <mxPoint x="480" y="460" as="sourcePoint" />
            <mxPoint x="479.65999999999997" y="360" as="targetPoint" />
          </mxGeometry>
        </mxCell>
        <mxCell id="soVYNJIR0e5djV3rPOhE-62" value="" style="endArrow=classic;html=1;rounded=0;" edge="1" parent="1">
          <mxGeometry width="50" height="50" relative="1" as="geometry">
            <mxPoint x="480" y="430" as="sourcePoint" />
            <mxPoint x="310" y="430" as="targetPoint" />
          </mxGeometry>
        </mxCell>
        <mxCell id="soVYNJIR0e5djV3rPOhE-63" value="Объект передан в UI" style="edgeLabel;html=1;align=center;verticalAlign=middle;resizable=0;points=[];" vertex="1" connectable="0" parent="soVYNJIR0e5djV3rPOhE-62">
          <mxGeometry x="0.17" y="3" relative="1" as="geometry">
            <mxPoint as="offset" />
          </mxGeometry>
        </mxCell>
        <mxCell id="soVYNJIR0e5djV3rPOhE-64" value="" style="endArrow=classic;html=1;rounded=0;" edge="1" parent="1">
          <mxGeometry width="50" height="50" relative="1" as="geometry">
            <mxPoint x="310" y="430" as="sourcePoint" />
            <mxPoint x="140" y="430" as="targetPoint" />
          </mxGeometry>
        </mxCell>
        <mxCell id="soVYNJIR0e5djV3rPOhE-65" value="Предмет выбран" style="edgeLabel;html=1;align=center;verticalAlign=middle;resizable=0;points=[];" vertex="1" connectable="0" parent="soVYNJIR0e5djV3rPOhE-64">
          <mxGeometry x="0.4418" y="2" relative="1" as="geometry">
            <mxPoint x="33" as="offset" />
          </mxGeometry>
        </mxCell>
        <mxCell id="soVYNJIR0e5djV3rPOhE-66" value="" style="endArrow=classic;html=1;rounded=0;" edge="1" parent="1">
          <mxGeometry width="50" height="50" relative="1" as="geometry">
            <mxPoint x="140" y="480" as="sourcePoint" />
            <mxPoint x="310" y="480" as="targetPoint" />
          </mxGeometry>
        </mxCell>
        <mxCell id="soVYNJIR0e5djV3rPOhE-68" value="Кликер" style="edgeLabel;html=1;align=center;verticalAlign=middle;resizable=0;points=[];" vertex="1" connectable="0" parent="soVYNJIR0e5djV3rPOhE-66">
          <mxGeometry x="-0.0604" relative="1" as="geometry">
            <mxPoint as="offset" />
          </mxGeometry>
        </mxCell>
        <mxCell id="soVYNJIR0e5djV3rPOhE-67" value="" style="endArrow=none;html=1;rounded=0;fillColor=#d5e8d4;strokeColor=#82b366;strokeWidth=5;" edge="1" parent="1">
          <mxGeometry width="50" height="50" relative="1" as="geometry">
            <mxPoint x="310" y="560" as="sourcePoint" />
            <mxPoint x="309.65999999999997" y="480" as="targetPoint" />
          </mxGeometry>
        </mxCell>
        <mxCell id="soVYNJIR0e5djV3rPOhE-69" value="" style="endArrow=classic;html=1;rounded=0;" edge="1" parent="1">
          <mxGeometry width="50" height="50" relative="1" as="geometry">
            <mxPoint x="310" y="520" as="sourcePoint" />
            <mxPoint x="480" y="520" as="targetPoint" />
          </mxGeometry>
        </mxCell>
        <mxCell id="soVYNJIR0e5djV3rPOhE-72" value="1клик = 1монета" style="edgeLabel;html=1;align=center;verticalAlign=middle;resizable=0;points=[];" vertex="1" connectable="0" parent="soVYNJIR0e5djV3rPOhE-69">
          <mxGeometry x="-0.1375" relative="1" as="geometry">
            <mxPoint as="offset" />
          </mxGeometry>
        </mxCell>
        <mxCell id="soVYNJIR0e5djV3rPOhE-71" value="" style="endArrow=none;html=1;rounded=0;fillColor=#d5e8d4;strokeColor=#82b366;strokeWidth=5;" edge="1" parent="1">
          <mxGeometry width="50" height="50" relative="1" as="geometry">
            <mxPoint x="480" y="550" as="sourcePoint" />
            <mxPoint x="479.65999999999997" y="520" as="targetPoint" />
          </mxGeometry>
        </mxCell>
        <mxCell id="soVYNJIR0e5djV3rPOhE-73" value="" style="endArrow=classic;html=1;rounded=0;" edge="1" parent="1">
          <mxGeometry width="50" height="50" relative="1" as="geometry">
            <mxPoint x="310" y="560" as="sourcePoint" />
            <mxPoint x="140" y="560" as="targetPoint" />
          </mxGeometry>
        </mxCell>
        <mxCell id="soVYNJIR0e5djV3rPOhE-74" value="Баланс" style="edgeLabel;html=1;align=center;verticalAlign=middle;resizable=0;points=[];" vertex="1" connectable="0" parent="soVYNJIR0e5djV3rPOhE-73">
          <mxGeometry x="-0.0126" y="2" relative="1" as="geometry">
            <mxPoint as="offset" />
          </mxGeometry>
        </mxCell>
        <mxCell id="soVYNJIR0e5djV3rPOhE-75" value="" style="endArrow=classic;html=1;rounded=0;" edge="1" parent="1">
          <mxGeometry width="50" height="50" relative="1" as="geometry">
            <mxPoint x="480" y="550" as="sourcePoint" />
            <mxPoint x="310" y="550" as="targetPoint" />
          </mxGeometry>
        </mxCell>
        <mxCell id="soVYNJIR0e5djV3rPOhE-76" value="Количество монет в массиве" style="edgeLabel;html=1;align=center;verticalAlign=middle;resizable=0;points=[];" vertex="1" connectable="0" parent="soVYNJIR0e5djV3rPOhE-75">
          <mxGeometry x="-0.2032" relative="1" as="geometry">
            <mxPoint x="-12" as="offset" />
          </mxGeometry>
        </mxCell>
        <mxCell id="soVYNJIR0e5djV3rPOhE-77" value="" style="endArrow=classic;html=1;rounded=0;" edge="1" parent="1">
          <mxGeometry width="50" height="50" relative="1" as="geometry">
            <mxPoint x="140" y="620" as="sourcePoint" />
            <mxPoint x="310" y="620" as="targetPoint" />
          </mxGeometry>
        </mxCell>
        <mxCell id="soVYNJIR0e5djV3rPOhE-79" value="Сохранение" style="edgeLabel;html=1;align=center;verticalAlign=middle;resizable=0;points=[];" vertex="1" connectable="0" parent="soVYNJIR0e5djV3rPOhE-77">
          <mxGeometry x="-0.2065" y="2" relative="1" as="geometry">
            <mxPoint as="offset" />
          </mxGeometry>
        </mxCell>
        <mxCell id="soVYNJIR0e5djV3rPOhE-78" value="" style="endArrow=none;html=1;rounded=0;fillColor=#d5e8d4;strokeColor=#82b366;strokeWidth=5;" edge="1" parent="1">
          <mxGeometry width="50" height="50" relative="1" as="geometry">
            <mxPoint x="310" y="710" as="sourcePoint" />
            <mxPoint x="309.65999999999997" y="620" as="targetPoint" />
          </mxGeometry>
        </mxCell>
        <mxCell id="soVYNJIR0e5djV3rPOhE-80" value="" style="endArrow=classic;html=1;rounded=0;" edge="1" parent="1">
          <mxGeometry width="50" height="50" relative="1" as="geometry">
            <mxPoint x="310" y="640" as="sourcePoint" />
            <mxPoint x="480" y="640" as="targetPoint" />
          </mxGeometry>
        </mxCell>
        <mxCell id="soVYNJIR0e5djV3rPOhE-82" value="Сохранение сцены" style="edgeLabel;html=1;align=center;verticalAlign=middle;resizable=0;points=[];" vertex="1" connectable="0" parent="soVYNJIR0e5djV3rPOhE-80">
          <mxGeometry x="-0.3323" y="-3" relative="1" as="geometry">
            <mxPoint x="23" as="offset" />
          </mxGeometry>
        </mxCell>
        <mxCell id="soVYNJIR0e5djV3rPOhE-81" value="" style="endArrow=none;html=1;rounded=0;fillColor=#d5e8d4;strokeColor=#82b366;strokeWidth=5;" edge="1" parent="1">
          <mxGeometry width="50" height="50" relative="1" as="geometry">
            <mxPoint x="480" y="660" as="sourcePoint" />
            <mxPoint x="479.65999999999997" y="640" as="targetPoint" />
          </mxGeometry>
        </mxCell>
        <mxCell id="soVYNJIR0e5djV3rPOhE-83" value="" style="endArrow=classic;html=1;rounded=0;" edge="1" parent="1">
          <mxGeometry width="50" height="50" relative="1" as="geometry">
            <mxPoint x="140" y="680" as="sourcePoint" />
            <mxPoint x="310" y="680" as="targetPoint" />
          </mxGeometry>
        </mxCell>
        <mxCell id="soVYNJIR0e5djV3rPOhE-84" value="Завершение работы" style="edgeLabel;html=1;align=center;verticalAlign=middle;resizable=0;points=[];" vertex="1" connectable="0" parent="soVYNJIR0e5djV3rPOhE-83">
          <mxGeometry x="0.1424" y="-2" relative="1" as="geometry">
            <mxPoint x="-17" as="offset" />
          </mxGeometry>
        </mxCell>
        <mxCell id="soVYNJIR0e5djV3rPOhE-85" value="" style="endArrow=classic;html=1;rounded=0;" edge="1" parent="1">
          <mxGeometry width="50" height="50" relative="1" as="geometry">
            <mxPoint x="310" y="710" as="sourcePoint" />
            <mxPoint x="140" y="710" as="targetPoint" />
          </mxGeometry>
        </mxCell>
        <mxCell id="soVYNJIR0e5djV3rPOhE-86" value="Завершение работы" style="edgeLabel;html=1;align=center;verticalAlign=middle;resizable=0;points=[];" vertex="1" connectable="0" parent="soVYNJIR0e5djV3rPOhE-85">
          <mxGeometry x="-0.0369" y="1" relative="1" as="geometry">
            <mxPoint as="offset" />
          </mxGeometry>
        </mxCell>
      </root>
    </mxGraphModel>
  </diagram>
</mxfile>
